PathFileType	4	(X/Y/Z)	pose2sim_0-814.trc
DataRate	CameraRate	NumFrames	NumMarkers	Units	OrigDataRate	OrigDataStartFrame	OrigNumFrames
50	50	8	22	m	50	305	815
Frame#	Time	Hip			RHip			RKnee			RAnkle			RBigToe			RSmallToe			RHeel			LHip			LKnee			LAnkle			LBigToe			LSmallToe			LHeel			Neck			Head			Nose			RShoulder			RElbow			RWrist			LShoulder			LElbow			LWrist			
		X1	Y1	Z1	X2	Y2	Z2	X3	Y3	Z3	X4	Y4	Z4	X5	Y5	Z5	X6	Y6	Z6	X7	Y7	Z7	X8	Y8	Z8	X9	Y9	Z9	X10	Y10	Z10	X11	Y11	Z11	X12	Y12	Z12	X13	Y13	Z13	X14	Y14	Z14	X15	Y15	Z15	X16	Y16	Z16	X17	Y17	Z17	X18	Y18	Z18	X19	Y19	Z19	X20	Y20	Z20	X21	Y21	Z21	X22	Y22	Z22	
305	6.1	0.14360863657258485	0.9662623126207439	-0.0985808087893902	0.026298335283935406	0.9549615444709123	-0.11023533444464284	-0.008202684037665614	0.5227494637549264	-0.13637210086687557	-0.04620249721530762	0.08824949616974875	-0.15760961785949196	-0.07678341516963075	0.03480344747010753	0.01115994965820081	-0.12200841637764308	0.04023685470536232	-0.05151051202785367	-0.03302379182359619	0.0467007309144838	-0.19448187174082326	0.26750419130287123	0.9584635106463343	-0.09706913280142065	0.30022293594190413	0.5272715228892103	-0.11722654037675014	0.32688213657294357	0.08988886781537046	-0.14115872674372534	0.3640390448031885	0.03156581300129795	0.029196037405578062	0.406529152899766	0.03937442041620144	-0.03331216395537074	0.3178873782959447	0.04573275902775797	-0.1744006123523837	0.13763662281671635	1.5631159391429137	-0.02534283453726765	0.13034211344384813	1.790230101314118	0.044105000681324565	0.12820704512918987	1.6448436463931098	0.14277933734021742	-0.04992591810015044	1.4628004357623479	-0.041312141914685824	-0.10867072760683677	1.1621814987081236	-0.011539843975875217	-0.17061799707920897	0.9068642863491744	0.06818075094670424	0.32511648771766904	1.4676090396796124	-0.056152609085202275	0.3925979602485929	1.1742292440875877	-0.0007077301217797436	0.46183557972893946	0.9266999219998957	0.1286107751574445
306	6.12	0.14430502784351704	0.9645994818924624	-0.10118691323274699	0.025589484915748844	0.9532714512969943	-0.10928618662180499	-0.0076682497795117315	0.5185326490266347	-0.1390045882067105	-0.0438113281283537	0.08600351794536149	-0.15755648523373667	-0.07866386726259952	0.03841463875734197	0.01399972024964635	-0.12270020345512911	0.04068175570819188	-0.05069814464028714	-0.03035092947237884	0.04572617595779861	-0.19154723981492913	0.26785736750484024	0.9565130204244379	-0.09904231005814523	0.3011167048453076	0.5229857915841151	-0.12341162780837947	0.3249711220919117	0.09348622206422168	-0.14671915870873786	0.3632800997118784	0.03351770239573927	0.030172348905437518	0.40749860989463327	0.03822554782467848	-0.02934137725952808	0.31551144277729476	0.046634300718650906	-0.17915816283055497	0.13549760173253864	1.5614720919242848	-0.023542362536899442	0.13113853669895767	1.7897938717173874	0.03967805983355564	0.12922503042356304	1.6440806731882736	0.13606240403445763	-0.05039533582862987	1.4623303211702225	-0.04297436491657768	-0.1067158782285554	1.158924861430175	-0.01375638036876137	-0.17036049399638373	0.9009769809355443	0.05553908527589423	0.3245965154838397	1.4657632599281307	-0.05688886433096224	0.39375394540839065	1.1753190490605632	0.0012346873312258997	0.46072083141425296	0.9243492745142515	0.11295902741684379
307	6.14	0.14447518614931945	0.9660343419521029	-0.10460521585952991	0.027280127728647838	0.9545680775377005	-0.10932776169926524	-0.008939669894573326	0.5215002467758739	-0.140266087323478	-0.04535209280369834	0.08755587116094121	-0.15745034968116914	-0.08100813509609496	0.037802844363526114	0.00846507048781118	-0.1269015119258471	0.04146159457384355	-0.052075099444931695	-0.03175303865777485	0.047578928782475736	-0.19160833966047025	0.2665872493735982	0.9591252707445905	-0.09839286705072435	0.29959812177836115	0.5232502631716126	-0.12235275861478727	0.3249739996253307	0.0910490888606933	-0.14671620451467424	0.3649097797853909	0.0368783680838228	0.028957066173525614	0.407597865912362	0.04024118235005727	-0.034814377313797114	0.31289989043868455	0.045326146754951994	-0.18030665272374796	0.13258778989708728	1.561113887479308	-0.02038163698580969	0.1269652770922541	1.7918949956915735	0.03926328148154532	0.12465306144565906	1.6461167564960617	0.12807558595739182	-0.05181379542895679	1.4607434779334953	-0.03652003606697734	-0.10522634114766706	1.159910439561234	-0.018305324202795164	-0.16886980624747858	0.8967154409949231	0.04234960504490499	0.3274379374571525	1.46681505222018	-0.05409289318642651	0.39049362686848854	1.1720121750552375	-0.0034409475823978775	0.46270854250936755	0.9158293483567141	0.10336892878383076
308	6.16	0.1471169025901485	0.9680926500154827	-0.10267473634279037	0.02528062427289564	0.9543686925592207	-0.10415048826811789	-0.009031399276574176	0.521330975824283	-0.1360189692975327	-0.042036103996331425	0.08406868773832754	-0.1655006615858762	-0.07392961527691438	0.03221720750098026	0.025723116689274926	-0.11872866560923545	0.036246461201624565	-0.03436320319942536	-0.03502426528249464	0.03434281750728172	-0.20769175143697988	0.26662058271163164	0.956484577943852	-0.09733563757832439	0.2981821109636912	0.5230960714279693	-0.11909014565317359	0.3287956316888849	0.08426726452916675	-0.1520678981069921	0.35277403271061636	0.035469017199784555	0.048648618296945154	0.39656090219460904	0.03432597493898968	-0.011459081617384995	0.3195403985629882	0.0398267706793366	-0.18973484809028654	0.13526874657945798	1.5676869208607196	-0.022867820626034242	0.13086409271931898	1.792329942355426	0.05988958086747882	0.1282539418337002	1.6484532120857174	0.12441594468852635	-0.05483302857336712	1.4653833854481444	-0.043600291067318574	-0.10633746985353816	1.1587871294363274	-0.02611379989519732	-0.16934575840762994	0.8946257559991236	0.03495088939619195	0.3270780284949041	1.4676449639562443	-0.0556265892285783	0.3900144044964034	1.1669469757145345	-0.005027691431630316	0.4669258580169912	0.9120069746425032	0.09243637741954103
309	6.18	0.14329606827050506	0.9631382914008827	-0.10294869952343541	0.025582958305929198	0.9524731776304937	-0.1068178358350578	-0.006324776456874611	0.5197301030456267	-0.13956165958855954	-0.03978922161207013	0.08779011163076182	-0.15978862026768056	-0.0806573795783741	0.03507507462896175	0.005081946958958971	-0.12159433714573074	0.04008323699764381	-0.06093899548008059	-0.027737272924543165	0.04778821428806546	-0.19620148920198457	0.2662949229463632	0.9560793819230746	-0.09706043472724749	0.29613020033770804	0.5231869038281672	-0.1198536165098649	0.32653834322366343	0.09158189283352756	-0.14601033916579453	0.35886158958818803	0.036022831401625224	0.02548909377525241	0.4053419887845358	0.040744220573241875	-0.03237233930805755	0.31480743279432777	0.04766393470799611	-0.17895232981850676	0.1356354112245583	1.5629534377172798	-0.020847805873762375	0.12823783654493628	1.7933970680931568	0.04359843167213568	0.12507023249755822	1.6471344138218413	0.13664184201199878	-0.05420202075697892	1.4590978642982655	-0.039674172299030495	-0.10732492395039203	1.1519206683373464	-0.021692191451978645	-0.17562495369078127	0.8916726002999916	0.022593954106900304	0.3272487842435724	1.46539413655661	-0.05223201324055604	0.38924722508507614	1.1664424889694034	-0.006137205017125157	0.4627279101855597	0.9086650972087715	0.07996790172407146
310	6.2	0.1446618639052283	0.9644278418436026	-0.10580949863453466	0.024669347619655956	0.9510378475756242	-0.1099960555022634	-0.005784510622866787	0.5214578405293617	-0.13586919433772432	-0.04221920602036816	0.09023300802851904	-0.16064381196192404	-0.08231277488681225	0.03589439930464798	0.011009440829464994	-0.12498877701211211	0.04066505490096673	-0.05314154656535463	-0.031786775023523776	0.04887040937622254	-0.2011145430300304	0.2687459035432102	0.9544280249275711	-0.1028348780034736	0.2996686342124128	0.5246001989158474	-0.12002151869486798	0.3256226915702932	0.0934807699434641	-0.1485760821138547	0.35958732415435735	0.03639915387483313	0.025218151358393583	0.4053902798171422	0.03925797154512674	-0.030461872213486788	0.3154890886192094	0.04815187867667783	-0.18220421162058467	0.13284365591782824	1.5643602359597257	-0.020813150237711103	0.128561499759954	1.7963789024684373	0.04793765144964954	0.12780236995237051	1.6526305128084693	0.13468520479041013	-0.05356796774119574	1.458647835270369	-0.0405895815309977	-0.10375375957935516	1.1552945265098729	-0.02721047463101221	-0.17275596506486637	0.8934539422828851	0.01299624329174646	0.32224291234314045	1.4661960123164888	-0.05362624416576965	0.38542292524973804	1.169170458315096	-0.008611891946721203	0.46488184611700173	0.908726432933742	0.0675620304324472
311	6.22	0.14528325274367107	0.964145276145476	-0.10673018463829237	0.025268298722456266	0.9534405405607269	-0.11219946759187102	-0.00798021193714327	0.5234614903105218	-0.1376610122665027	-0.04333301552706811	0.08955758137591568	-0.16388740511926048	-0.08041263444923046	0.03648259189929276	0.014311801561115185	-0.12513213980207127	0.03820020281784291	-0.052146603730708604	-0.02956500726008545	0.04937898154837246	-0.20283019564688187	0.2684501809368908	0.9542399954935499	-0.10151770034780246	0.29987513216923345	0.5235385015679235	-0.11958389951536641	0.32756544000903676	0.09279548230198352	-0.14664875953025466	0.3598888669443994	0.03699563391630776	0.022621939123021694	0.40721002535482576	0.04136228150109797	-0.03745938170081738	0.3140869808691589	0.04596236703463427	-0.17745317632452762	0.13339316282063562	1.5646863777974582	-0.01576492397043783	0.12766910988070612	1.794988871650432	0.04971308101090397	0.12325162754765545	1.655633163439333	0.12599988601606438	-0.05336678970808333	1.460094153616156	-0.03532716505155094	-0.10486040999934106	1.1575534689726432	-0.032046962025883266	-0.17408284742864225	0.8938074471839115	0.00026519775248733704	0.32489963835102736	1.4686888936084534	-0.053237028823583374	0.38833963365602336	1.1731587169600044	-0.007686552938889347	0.4603512835456779	0.9073081984665831	0.06707157732657347
312	6.24	0.14493465691604235	0.966184506334902	-0.10104914228392275	0.02493267443341015	0.9552490435157951	-0.10391314267280921	-0.008536066923144748	0.5228601820042268	-0.13292240549242876	-0.04396778563857489	0.08316335150010741	-0.16582221084000118	-0.07084172901526413	0.03209866924718438	0.0313953886000961	-0.1205890241539015	0.03512803535609713	-0.034744743175366445	-0.035440603558089166	0.03565587972427658	-0.20555430480479514	0.2673985665350746	0.956046364254066	-0.0949976710773244	0.29745896374102804	0.5214484574404634	-0.1198687163023629	0.3282956904146622	0.08454265752823527	-0.14843376607207326	0.35153406577849694	0.035915996919653574	0.05018023002219395	0.39414735271682466	0.03591121697622902	-0.013031331131611016	0.3178487873794909	0.03805621743090119	-0.1860721691119349	0.13311899320788556	1.56523805466944	-0.02269978731393023	0.12990816323877352	1.7941251453322482	0.052301256011104656	0.13461339233696934	1.6490703902698673	0.12630059540211527	-0.05569660468845648	1.4608927671232008	-0.03639672296510626	-0.10655714439218739	1.1532321833315802	-0.03980525111637888	-0.16992692463572237	0.8881753829189678	0.0021279224857021282	0.32528722788876274	1.4657338413917094	-0.05455289417473891	0.387008315792443	1.1620065359140395	-0.01425057823490687	0.46446935024956487	0.8970071722802377	0.06511628064757637
